<svg version="1.1" viewBox="0.0 0.0 1020 750" fill="none" stroke="none" stroke-linecap="square" stroke-miterlimit="10"
     xmlns="http://www.w3.org/2000/svg">
<defs>
  <radialGradient id="ripple-gradient">
    <stop offset="0%" stop-color="#0000" />
    <stop offset="90%" stop-color="#0000" />
    <stop offset="100%" stop-color="#000" />
  </radialGradient>
</defs>
<style>
	text.desk {
		dominant-baseline: middle;
	}
	text.desk:not(.selected) {
		font-weight: 500;
	}
	text.desk.selected {
		font-size: 40px;
		fill: #fff;
	}
	@keyframes ripple {
		0%   { r: 25px; }
		90%  {           opacity: 100%; }
		100% { r: 100px; opacity: 0; }
	}
	circle.desk:not(.selected) {
		opacity: 80%;
	}
	@keyframes desk-selected {
		0%   { r: 25px; }
		100% { r: 30px; }
	}
	circle.desk.selected {
		r: 30px;
		fill: #000;
	  animation-name: desk-selected;
	  animation-duration: 1s;
	  animation-iteration-count: infinite;
		animation-direction: alternate;
	}
	.ripple.selected {
		visibility: visible;
		fill: url(#ripple-gradient);
	  animation-name: ripple;
	  animation-duration: 2s;
	  animation-iteration-count: infinite;
	}
	.station-shadow.selected {
		filter: url(#selected-shadow);
		visibility: visible;
		fill: #fff !important;
	}
	rect.desk:not(.selected) {
	}
	rect.desk.selected {
		stroke-width: 20px;
		fill: #eee;
	}
	.larger.desk:not(.selected) {
		visibility: hidden;
	}

	.floor {
		fill: #a7a7a7;
	}
	.desk.selected {
		z-index: 2;
	}
</style>

<filter id="selected-shadow" height="130%">
  <feGaussianBlur in="SourceAlpha" stdDeviation="10"/>
  <feOffset dx="0" dy="0" result="offsetblur"/>
  <feComponentTransfer>
		<feFuncA type="linear" slope="0.5"/>
  </feComponentTransfer>
  <feMerge>
    <feMergeNode/>
    <feMergeNode in="SourceGraphic"/>
  </feMerge>
</filter>
<clipPath id="p.0">
<path d="m0 0l1051.7218 0l0 745.48816l-1051.7218 0l0 -745.48816z" clip-rule="nonzero"/>
</clipPath>
<g clip-path="url(#p.0)">
<path class="floor" fill="#f3f3f3" d="m0 0l1051.7218 0l0 745.48816l-1051.7218 0z" fill-rule="evenodd"/>
<g id="struct">
	<path class="floor" stroke="#666666" stroke-width="12.0" stroke-linejoin="round" stroke-linecap="butt" d="m146.50096 22.475069l872.9764 0l0 661.98425l-872.9764 0z" fill-rule="evenodd"/>
	<path fill="#666666" d="m0 126.14173l193.35432 0l0 453.44885l-193.35432 0z" fill-rule="evenodd"/>
	<path stroke="#666666" stroke-width="1.0" stroke-linejoin="round" stroke-linecap="butt" d="m0 126.14173l193.35432 0l0 453.44885l-193.35432 0z" fill-rule="evenodd"/>
	<path fill="#666666" d="m0 -0.9527559l153.19685 0l0 31.874016l-153.19685 0z" fill-rule="evenodd"/>
	<path stroke="#666666" stroke-width="1.0" stroke-linejoin="round" stroke-linecap="butt" d="m0 -0.9527559l153.19685 0l0 31.874016l-153.19685 0z" fill-rule="evenodd"/>
	<path fill="#666666" d="m153.16798 678.4304l0 67.968506l-13.039368 0l0 -67.968506z" fill-rule="evenodd"/>
	<path fill="#666666" d="m153.16728 407.2021l0 201.51184l-13.039368 0l0 -201.51184z" fill-rule="evenodd"/>
	<path fill="#666666" d="m153.16728 109.88714l0 201.51181l-13.039368 0l0 -201.51181z" fill-rule="evenodd"/>
	<path fill="#666666" d="m153.16798 -0.9527559l0 41.66929l-13.039368 0l0 -41.66929z" fill-rule="evenodd"/>
	<path class="floor" fill="#efefef" d="m140 589 l0 90 l14 0 l0 -90z" />
	<path class="floor" fill="#efefef" d="m883 30 l41 0 l0 -20 l-41 0z" />
	<path class="floor" fill="#efefef" d="m140 40 l0 69 l13 0 l0 -69z" />
</g>
<text fill="#fff" font-family="monospace" font-size="26" font-weight="600" x="80" y="540">stage</text>

<g id="group-A" class="group">







	<g class="desk desk-A-1 desk-A-2" id="desk-A-1-2" transform="translate(220, 550) rotate(-90)">
		<rect class="desk desk-A-1 desk-A-2" fill="#ccc" x="0" y="0" width="90" height="56" />

		<circle class="station-shadow desk-A-1" fill="#fff" visibility="hidden" cx="24" cy="29" r="15" />

		  <circle class="station-shadow desk-A-2" fill="#fff" visibility="hidden" cx="64" cy="29" r="15" />

		<circle class="desk desk-A-1" fill="#decaa1" cx="24" cy="29" r="15" />

		  <circle class="desk desk-A-2" fill="#decaa1" cx="64" cy="29" r="15" />



			<text class="desk desk-A-1" fill="#000" text-anchor="middle" font-family="monospace" font-size="18" font-weight="400" x="30" y="-24" transform="rotate(90)">1</text>

		  	<text class="desk desk-A-2" fill="#000" text-anchor="middle" font-family="monospace" font-size="18" font-weight="400" x="30" y="-64" transform="rotate(90)">2</text>


	</g>






	<g class="desk desk-A-3 desk-A-4" id="desk-A-3-4" transform="translate(220, 445) rotate(-90)">
		<rect class="desk desk-A-3 desk-A-4" fill="#ccc" x="0" y="0" width="90" height="56" />

		<circle class="station-shadow desk-A-3" fill="#fff" visibility="hidden" cx="24" cy="29" r="15" />

		  <circle class="station-shadow desk-A-4" fill="#fff" visibility="hidden" cx="64" cy="29" r="15" />

		<circle class="desk desk-A-3" fill="#decaa1" cx="24" cy="29" r="15" />

		  <circle class="desk desk-A-4" fill="#decaa1" cx="64" cy="29" r="15" />



			<text class="desk desk-A-3" fill="#000" text-anchor="middle" font-family="monospace" font-size="18" font-weight="400" x="30" y="-24" transform="rotate(90)">3</text>

		  	<text class="desk desk-A-4" fill="#000" text-anchor="middle" font-family="monospace" font-size="18" font-weight="400" x="30" y="-64" transform="rotate(90)">4</text>


	</g>






	<g class="desk desk-A-5 desk-A-6" id="desk-A-5-6" transform="translate(220, 340) rotate(-90)">
		<rect class="desk desk-A-5 desk-A-6" fill="#ccc" x="0" y="0" width="90" height="56" />

		<circle class="station-shadow desk-A-5" fill="#fff" visibility="hidden" cx="24" cy="29" r="15" />

		  <circle class="station-shadow desk-A-6" fill="#fff" visibility="hidden" cx="64" cy="29" r="15" />

		<circle class="desk desk-A-5" fill="#decaa1" cx="24" cy="29" r="15" />

		  <circle class="desk desk-A-6" fill="#decaa1" cx="64" cy="29" r="15" />



			<text class="desk desk-A-5" fill="#000" text-anchor="middle" font-family="monospace" font-size="18" font-weight="400" x="30" y="-24" transform="rotate(90)">5</text>

		  	<text class="desk desk-A-6" fill="#000" text-anchor="middle" font-family="monospace" font-size="18" font-weight="400" x="30" y="-64" transform="rotate(90)">6</text>


	</g>






	<g class="desk desk-A-7 desk-A-8" id="desk-A-7-8" transform="translate(220, 235) rotate(-90)">
		<rect class="desk desk-A-7 desk-A-8" fill="#ccc" x="0" y="0" width="90" height="56" />

		<circle class="station-shadow desk-A-7" fill="#fff" visibility="hidden" cx="24" cy="29" r="15" />

		  <circle class="station-shadow desk-A-8" fill="#fff" visibility="hidden" cx="64" cy="29" r="15" />

		<circle class="desk desk-A-7" fill="#decaa1" cx="24" cy="29" r="15" />

		  <circle class="desk desk-A-8" fill="#decaa1" cx="64" cy="29" r="15" />



			<text class="desk desk-A-7" fill="#000" text-anchor="middle" font-family="monospace" font-size="18" font-weight="400" x="30" y="-24" transform="rotate(90)">7</text>

		  	<text class="desk desk-A-8" fill="#000" text-anchor="middle" font-family="monospace" font-size="18" font-weight="400" x="30" y="-64" transform="rotate(90)">8</text>


	</g>


</g>

<g id="group-B" class="group">







	<g class="desk desk-B-9" id="desk-B-9" transform="translate(313, 600) rotate(0)">
		<rect class="desk desk-B-9" fill="#ccc" x="0" y="0" width="90" height="56" />

		<circle class="station-shadow desk-B-9" fill="#fff" visibility="hidden" cx="24" cy="29" r="15" />

		<circle class="desk desk-B-9" fill="#93ead8" cx="24" cy="29" r="15" />



			<text class="desk desk-B-9" fill="#000" text-anchor="middle" font-family="monospace" font-size="18" font-weight="400" x="24" y="30">9</text>


	</g>






	<g class="desk desk-B-10 desk-B-11" id="desk-B-10-11" transform="translate(418, 600) rotate(0)">
		<rect class="desk desk-B-10 desk-B-11" fill="#ccc" x="0" y="0" width="90" height="56" />

		<circle class="station-shadow desk-B-10" fill="#fff" visibility="hidden" cx="24" cy="29" r="15" />

		  <circle class="station-shadow desk-B-11" fill="#fff" visibility="hidden" cx="64" cy="29" r="15" />

		<circle class="desk desk-B-10" fill="#93ead8" cx="24" cy="29" r="15" />

		  <circle class="desk desk-B-11" fill="#93ead8" cx="64" cy="29" r="15" />



			<text class="desk desk-B-10" fill="#000" text-anchor="middle" font-family="monospace" font-size="18" font-weight="400" x="24" y="30">10</text>

		  	<text class="desk desk-B-11" fill="#000" text-anchor="middle" font-family="monospace" font-size="18" font-weight="400" x="64" y="30">11</text>


	</g>






	<g class="desk desk-B-12 desk-B-13" id="desk-B-12-13" transform="translate(523, 600) rotate(0)">
		<rect class="desk desk-B-12 desk-B-13" fill="#ccc" x="0" y="0" width="90" height="56" />

		<circle class="station-shadow desk-B-12" fill="#fff" visibility="hidden" cx="24" cy="29" r="15" />

		  <circle class="station-shadow desk-B-13" fill="#fff" visibility="hidden" cx="64" cy="29" r="15" />

		<circle class="desk desk-B-12" fill="#93ead8" cx="24" cy="29" r="15" />

		  <circle class="desk desk-B-13" fill="#93ead8" cx="64" cy="29" r="15" />



			<text class="desk desk-B-12" fill="#000" text-anchor="middle" font-family="monospace" font-size="18" font-weight="400" x="24" y="30">12</text>

		  	<text class="desk desk-B-13" fill="#000" text-anchor="middle" font-family="monospace" font-size="18" font-weight="400" x="64" y="30">13</text>


	</g>






	<g class="desk desk-B-14 desk-B-15" id="desk-B-14-15" transform="translate(628, 600) rotate(0)">
		<rect class="desk desk-B-14 desk-B-15" fill="#ccc" x="0" y="0" width="90" height="56" />

		<circle class="station-shadow desk-B-14" fill="#fff" visibility="hidden" cx="24" cy="29" r="15" />

		  <circle class="station-shadow desk-B-15" fill="#fff" visibility="hidden" cx="64" cy="29" r="15" />

		<circle class="desk desk-B-14" fill="#93ead8" cx="24" cy="29" r="15" />

		  <circle class="desk desk-B-15" fill="#93ead8" cx="64" cy="29" r="15" />



			<text class="desk desk-B-14" fill="#000" text-anchor="middle" font-family="monospace" font-size="18" font-weight="400" x="24" y="30">14</text>

		  	<text class="desk desk-B-15" fill="#000" text-anchor="middle" font-family="monospace" font-size="18" font-weight="400" x="64" y="30">15</text>


	</g>






	<g class="desk desk-B-16 desk-B-17" id="desk-B-16-17" transform="translate(733, 600) rotate(0)">
		<rect class="desk desk-B-16 desk-B-17" fill="#ccc" x="0" y="0" width="90" height="56" />

		<circle class="station-shadow desk-B-16" fill="#fff" visibility="hidden" cx="24" cy="29" r="15" />

		  <circle class="station-shadow desk-B-17" fill="#fff" visibility="hidden" cx="64" cy="29" r="15" />

		<circle class="desk desk-B-16" fill="#93ead8" cx="24" cy="29" r="15" />

		  <circle class="desk desk-B-17" fill="#93ead8" cx="64" cy="29" r="15" />



			<text class="desk desk-B-16" fill="#000" text-anchor="middle" font-family="monospace" font-size="18" font-weight="400" x="24" y="30">16</text>

		  	<text class="desk desk-B-17" fill="#000" text-anchor="middle" font-family="monospace" font-size="18" font-weight="400" x="64" y="30">17</text>


	</g>






	<g class="desk desk-B-18 desk-B-54" id="desk-B-18-54" transform="translate(838, 600) rotate(0)">
		<rect class="desk desk-B-18 desk-B-54" fill="#ccc" x="0" y="0" width="90" height="56" />

		<circle class="station-shadow desk-B-18" fill="#fff" visibility="hidden" cx="24" cy="29" r="15" />

		  <circle class="station-shadow desk-B-54" fill="#fff" visibility="hidden" cx="64" cy="29" r="15" />

		<circle class="desk desk-B-18" fill="#93ead8" cx="24" cy="29" r="15" />

		  <circle class="desk desk-B-54" fill="#93ead8" cx="64" cy="29" r="15" />



			<text class="desk desk-B-18" fill="#000" text-anchor="middle" font-family="monospace" font-size="18" font-weight="400" x="24" y="30">18</text>

		  	<text class="desk desk-B-54" fill="#000" text-anchor="middle" font-family="monospace" font-size="18" font-weight="400" x="64" y="30">54</text>


	</g>


</g>

<g id="group-C" class="group">







	<g class="desk desk-C-34 desk-C-35" id="desk-C-34-35" transform="translate(430, 310) rotate(90)">
		<rect class="desk desk-C-34 desk-C-35" fill="#ccc" x="0" y="0" width="90" height="56" />

		<circle class="station-shadow desk-C-34" fill="#fff" visibility="hidden" cx="24" cy="29" r="15" />

		  <circle class="station-shadow desk-C-35" fill="#fff" visibility="hidden" cx="64" cy="29" r="15" />

		<circle class="desk desk-C-34" fill="#f1ee84" cx="24" cy="29" r="15" />

		  <circle class="desk desk-C-35" fill="#f1ee84" cx="64" cy="29" r="15" />



			<text class="desk desk-C-34" fill="#000" text-anchor="middle" font-family="monospace" font-size="18" font-weight="400" x="-30" y="24" transform="rotate(-90)">34</text>

		  	<text class="desk desk-C-35" fill="#000" text-anchor="middle" font-family="monospace" font-size="18" font-weight="400" x="-30" y="64" transform="rotate(-90)">35</text>


	</g>






	<g class="desk desk-C-38 desk-C-39" id="desk-C-38-39" transform="translate(410, 415) rotate(0)">
		<rect class="desk desk-C-38 desk-C-39" fill="#ccc" x="0" y="0" width="90" height="56" />

		<circle class="station-shadow desk-C-38" fill="#fff" visibility="hidden" cx="24" cy="29" r="15" />

		  <circle class="station-shadow desk-C-39" fill="#fff" visibility="hidden" cx="64" cy="29" r="15" />

		<circle class="desk desk-C-38" fill="#f1ee84" cx="24" cy="29" r="15" />

		  <circle class="desk desk-C-39" fill="#f1ee84" cx="64" cy="29" r="15" />



			<text class="desk desk-C-38" fill="#000" text-anchor="middle" font-family="monospace" font-size="18" font-weight="400" x="24" y="30">38</text>

		  	<text class="desk desk-C-39" fill="#000" text-anchor="middle" font-family="monospace" font-size="18" font-weight="400" x="64" y="30">39</text>


	</g>






	<g class="desk desk-C-40 desk-C-41" id="desk-C-40-41" transform="translate(515, 415) rotate(0)">
		<rect class="desk desk-C-40 desk-C-41" fill="#ccc" x="0" y="0" width="90" height="56" />

		<circle class="station-shadow desk-C-40" fill="#fff" visibility="hidden" cx="24" cy="29" r="15" />

		  <circle class="station-shadow desk-C-41" fill="#fff" visibility="hidden" cx="64" cy="29" r="15" />

		<circle class="desk desk-C-40" fill="#f1ee84" cx="24" cy="29" r="15" />

		  <circle class="desk desk-C-41" fill="#f1ee84" cx="64" cy="29" r="15" />



			<text class="desk desk-C-40" fill="#000" text-anchor="middle" font-family="monospace" font-size="18" font-weight="400" x="24" y="30">40</text>

		  	<text class="desk desk-C-41" fill="#000" text-anchor="middle" font-family="monospace" font-size="18" font-weight="400" x="64" y="30">41</text>


	</g>






	<g class="desk desk-C-37 desk-C-36" id="desk-C-37-36" transform="translate(580, 400) rotate(-90)">
		<rect class="desk desk-C-37 desk-C-36" fill="#ccc" x="0" y="0" width="90" height="56" />

		<circle class="station-shadow desk-C-37" fill="#fff" visibility="hidden" cx="24" cy="29" r="15" />

		  <circle class="station-shadow desk-C-36" fill="#fff" visibility="hidden" cx="64" cy="29" r="15" />

		<circle class="desk desk-C-37" fill="#f1ee84" cx="24" cy="29" r="15" />

		  <circle class="desk desk-C-36" fill="#f1ee84" cx="64" cy="29" r="15" />



			<text class="desk desk-C-37" fill="#000" text-anchor="middle" font-family="monospace" font-size="18" font-weight="400" x="30" y="-24" transform="rotate(90)">37</text>

		  	<text class="desk desk-C-36" fill="#000" text-anchor="middle" font-family="monospace" font-size="18" font-weight="400" x="30" y="-64" transform="rotate(90)">36</text>


	</g>






	<g class="desk desk-C-32 desk-C-33" id="desk-C-32-33" transform="translate(515, 240) rotate(0)">
		<rect class="desk desk-C-32 desk-C-33" fill="#ccc" x="0" y="0" width="90" height="56" />

		<circle class="station-shadow desk-C-32" fill="#fff" visibility="hidden" cx="24" cy="29" r="15" />

		  <circle class="station-shadow desk-C-33" fill="#fff" visibility="hidden" cx="64" cy="29" r="15" />

		<circle class="desk desk-C-32" fill="#f1ee84" cx="24" cy="29" r="15" />

		  <circle class="desk desk-C-33" fill="#f1ee84" cx="64" cy="29" r="15" />



			<text class="desk desk-C-32" fill="#000" text-anchor="middle" font-family="monospace" font-size="18" font-weight="400" x="24" y="30">32</text>

		  	<text class="desk desk-C-33" fill="#000" text-anchor="middle" font-family="monospace" font-size="18" font-weight="400" x="64" y="30">33</text>


	</g>






	<g class="desk desk-C-30 desk-C-31" id="desk-C-30-31" transform="translate(410, 240) rotate(0)">
		<rect class="desk desk-C-30 desk-C-31" fill="#ccc" x="0" y="0" width="90" height="56" />

		<circle class="station-shadow desk-C-30" fill="#fff" visibility="hidden" cx="24" cy="29" r="15" />

		  <circle class="station-shadow desk-C-31" fill="#fff" visibility="hidden" cx="64" cy="29" r="15" />

		<circle class="desk desk-C-30" fill="#f1ee84" cx="24" cy="29" r="15" />

		  <circle class="desk desk-C-31" fill="#f1ee84" cx="64" cy="29" r="15" />



			<text class="desk desk-C-30" fill="#000" text-anchor="middle" font-family="monospace" font-size="18" font-weight="400" x="24" y="30">30</text>

		  	<text class="desk desk-C-31" fill="#000" text-anchor="middle" font-family="monospace" font-size="18" font-weight="400" x="64" y="30">31</text>


	</g>






	<g class="desk desk-C-42 desk-C-43" id="desk-C-42-43" transform="translate(770, 310) rotate(90)">
		<rect class="desk desk-C-42 desk-C-43" fill="#ccc" x="0" y="0" width="90" height="56" />

		<circle class="station-shadow desk-C-42" fill="#fff" visibility="hidden" cx="24" cy="29" r="15" />

		  <circle class="station-shadow desk-C-43" fill="#fff" visibility="hidden" cx="64" cy="29" r="15" />

		<circle class="desk desk-C-42" fill="#f1ee84" cx="24" cy="29" r="15" />

		  <circle class="desk desk-C-43" fill="#f1ee84" cx="64" cy="29" r="15" />



			<text class="desk desk-C-42" fill="#000" text-anchor="middle" font-family="monospace" font-size="18" font-weight="400" x="-30" y="24" transform="rotate(-90)">42</text>

		  	<text class="desk desk-C-43" fill="#000" text-anchor="middle" font-family="monospace" font-size="18" font-weight="400" x="-30" y="64" transform="rotate(-90)">43</text>


	</g>


</g>

<g id="group-D" class="group">







	<g class="desk desk-D-48 desk-D-49" id="desk-D-48-49" transform="translate(750, 415) rotate(0)">
		<rect class="desk desk-D-48 desk-D-49" fill="#ccc" x="0" y="0" width="90" height="56" />

		<circle class="station-shadow desk-D-48" fill="#fff" visibility="hidden" cx="24" cy="29" r="15" />

		  <circle class="station-shadow desk-D-49" fill="#fff" visibility="hidden" cx="64" cy="29" r="15" />

		<circle class="desk desk-D-48" fill="#9de1b7" cx="24" cy="29" r="15" />

		  <circle class="desk desk-D-49" fill="#9de1b7" cx="64" cy="29" r="15" />



			<text class="desk desk-D-48" fill="#000" text-anchor="middle" font-family="monospace" font-size="18" font-weight="400" x="24" y="30">48</text>

		  	<text class="desk desk-D-49" fill="#000" text-anchor="middle" font-family="monospace" font-size="18" font-weight="400" x="64" y="30">49</text>


	</g>






	<g class="desk desk-D-50 desk-D-51" id="desk-D-50-51" transform="translate(855, 415) rotate(0)">
		<rect class="desk desk-D-50 desk-D-51" fill="#ccc" x="0" y="0" width="90" height="56" />

		<circle class="station-shadow desk-D-50" fill="#fff" visibility="hidden" cx="24" cy="29" r="15" />

		  <circle class="station-shadow desk-D-51" fill="#fff" visibility="hidden" cx="64" cy="29" r="15" />

		<circle class="desk desk-D-50" fill="#9de1b7" cx="24" cy="29" r="15" />

		  <circle class="desk desk-D-51" fill="#9de1b7" cx="64" cy="29" r="15" />



			<text class="desk desk-D-50" fill="#000" text-anchor="middle" font-family="monospace" font-size="18" font-weight="400" x="24" y="30">50</text>

		  	<text class="desk desk-D-51" fill="#000" text-anchor="middle" font-family="monospace" font-size="18" font-weight="400" x="64" y="30">51</text>


	</g>






	<g class="desk desk-D-53 desk-D-52" id="desk-D-53-52" transform="translate(920, 400) rotate(-90)">
		<rect class="desk desk-D-53 desk-D-52" fill="#ccc" x="0" y="0" width="90" height="56" />

		<circle class="station-shadow desk-D-53" fill="#fff" visibility="hidden" cx="24" cy="29" r="15" />

		  <circle class="station-shadow desk-D-52" fill="#fff" visibility="hidden" cx="64" cy="29" r="15" />

		<circle class="desk desk-D-53" fill="#9de1b7" cx="24" cy="29" r="15" />

		  <circle class="desk desk-D-52" fill="#9de1b7" cx="64" cy="29" r="15" />



			<text class="desk desk-D-53" fill="#000" text-anchor="middle" font-family="monospace" font-size="18" font-weight="400" x="30" y="-24" transform="rotate(90)">53</text>

		  	<text class="desk desk-D-52" fill="#000" text-anchor="middle" font-family="monospace" font-size="18" font-weight="400" x="30" y="-64" transform="rotate(90)">52</text>


	</g>






	<g class="desk desk-D-46 desk-D-47" id="desk-D-46-47" transform="translate(855, 240) rotate(0)">
		<rect class="desk desk-D-46 desk-D-47" fill="#ccc" x="0" y="0" width="90" height="56" />

		<circle class="station-shadow desk-D-46" fill="#fff" visibility="hidden" cx="24" cy="29" r="15" />

		  <circle class="station-shadow desk-D-47" fill="#fff" visibility="hidden" cx="64" cy="29" r="15" />

		<circle class="desk desk-D-46" fill="#9de1b7" cx="24" cy="29" r="15" />

		  <circle class="desk desk-D-47" fill="#9de1b7" cx="64" cy="29" r="15" />



			<text class="desk desk-D-46" fill="#000" text-anchor="middle" font-family="monospace" font-size="18" font-weight="400" x="24" y="30">46</text>

		  	<text class="desk desk-D-47" fill="#000" text-anchor="middle" font-family="monospace" font-size="18" font-weight="400" x="64" y="30">47</text>


	</g>






	<g class="desk desk-D-44 desk-D-45" id="desk-D-44-45" transform="translate(750, 240) rotate(0)">
		<rect class="desk desk-D-44 desk-D-45" fill="#ccc" x="0" y="0" width="90" height="56" />

		<circle class="station-shadow desk-D-44" fill="#fff" visibility="hidden" cx="24" cy="29" r="15" />

		  <circle class="station-shadow desk-D-45" fill="#fff" visibility="hidden" cx="64" cy="29" r="15" />

		<circle class="desk desk-D-44" fill="#9de1b7" cx="24" cy="29" r="15" />

		  <circle class="desk desk-D-45" fill="#9de1b7" cx="64" cy="29" r="15" />



			<text class="desk desk-D-44" fill="#000" text-anchor="middle" font-family="monospace" font-size="18" font-weight="400" x="24" y="30">44</text>

		  	<text class="desk desk-D-45" fill="#000" text-anchor="middle" font-family="monospace" font-size="18" font-weight="400" x="64" y="30">45</text>


	</g>


</g>

<g id="group-E" class="group">







	<g class="desk desk-E-19 desk-E-20" id="desk-E-19-20" transform="translate(313, 50) rotate(0)">
		<rect class="desk desk-E-19 desk-E-20" fill="#ccc" x="0" y="0" width="90" height="56" />

		<circle class="station-shadow desk-E-19" fill="#fff" visibility="hidden" cx="24" cy="29" r="15" />

		  <circle class="station-shadow desk-E-20" fill="#fff" visibility="hidden" cx="64" cy="29" r="15" />

		<circle class="desk desk-E-19" fill="#cab5b7" cx="24" cy="29" r="15" />

		  <circle class="desk desk-E-20" fill="#cab5b7" cx="64" cy="29" r="15" />



			<text class="desk desk-E-19" fill="#000" text-anchor="middle" font-family="monospace" font-size="18" font-weight="400" x="24" y="30">19</text>

		  	<text class="desk desk-E-20" fill="#000" text-anchor="middle" font-family="monospace" font-size="18" font-weight="400" x="64" y="30">20</text>


	</g>






	<g class="desk desk-E-21 desk-E-22" id="desk-E-21-22" transform="translate(418, 50) rotate(0)">
		<rect class="desk desk-E-21 desk-E-22" fill="#ccc" x="0" y="0" width="90" height="56" />

		<circle class="station-shadow desk-E-21" fill="#fff" visibility="hidden" cx="24" cy="29" r="15" />

		  <circle class="station-shadow desk-E-22" fill="#fff" visibility="hidden" cx="64" cy="29" r="15" />

		<circle class="desk desk-E-21" fill="#cab5b7" cx="24" cy="29" r="15" />

		  <circle class="desk desk-E-22" fill="#cab5b7" cx="64" cy="29" r="15" />



			<text class="desk desk-E-21" fill="#000" text-anchor="middle" font-family="monospace" font-size="18" font-weight="400" x="24" y="30">21</text>

		  	<text class="desk desk-E-22" fill="#000" text-anchor="middle" font-family="monospace" font-size="18" font-weight="400" x="64" y="30">22</text>


	</g>






	<g class="desk desk-E-23 desk-E-24" id="desk-E-23-24" transform="translate(523, 50) rotate(0)">
		<rect class="desk desk-E-23 desk-E-24" fill="#ccc" x="0" y="0" width="90" height="56" />

		<circle class="station-shadow desk-E-23" fill="#fff" visibility="hidden" cx="24" cy="29" r="15" />

		  <circle class="station-shadow desk-E-24" fill="#fff" visibility="hidden" cx="64" cy="29" r="15" />

		<circle class="desk desk-E-23" fill="#cab5b7" cx="24" cy="29" r="15" />

		  <circle class="desk desk-E-24" fill="#cab5b7" cx="64" cy="29" r="15" />



			<text class="desk desk-E-23" fill="#000" text-anchor="middle" font-family="monospace" font-size="18" font-weight="400" x="24" y="30">23</text>

		  	<text class="desk desk-E-24" fill="#000" text-anchor="middle" font-family="monospace" font-size="18" font-weight="400" x="64" y="30">24</text>


	</g>






	<g class="desk desk-E-25 desk-E-26" id="desk-E-25-26" transform="translate(628, 50) rotate(0)">
		<rect class="desk desk-E-25 desk-E-26" fill="#ccc" x="0" y="0" width="90" height="56" />

		<circle class="station-shadow desk-E-25" fill="#fff" visibility="hidden" cx="24" cy="29" r="15" />

		  <circle class="station-shadow desk-E-26" fill="#fff" visibility="hidden" cx="64" cy="29" r="15" />

		<circle class="desk desk-E-25" fill="#cab5b7" cx="24" cy="29" r="15" />

		  <circle class="desk desk-E-26" fill="#cab5b7" cx="64" cy="29" r="15" />



			<text class="desk desk-E-25" fill="#000" text-anchor="middle" font-family="monospace" font-size="18" font-weight="400" x="24" y="30">25</text>

		  	<text class="desk desk-E-26" fill="#000" text-anchor="middle" font-family="monospace" font-size="18" font-weight="400" x="64" y="30">26</text>


	</g>






	<g class="desk desk-E-27 desk-E-28" id="desk-E-27-28" transform="translate(733, 50) rotate(0)">
		<rect class="desk desk-E-27 desk-E-28" fill="#ccc" x="0" y="0" width="90" height="56" />

		<circle class="station-shadow desk-E-27" fill="#fff" visibility="hidden" cx="24" cy="29" r="15" />

		  <circle class="station-shadow desk-E-28" fill="#fff" visibility="hidden" cx="64" cy="29" r="15" />

		<circle class="desk desk-E-27" fill="#cab5b7" cx="24" cy="29" r="15" />

		  <circle class="desk desk-E-28" fill="#cab5b7" cx="64" cy="29" r="15" />



			<text class="desk desk-E-27" fill="#000" text-anchor="middle" font-family="monospace" font-size="18" font-weight="400" x="24" y="30">27</text>

		  	<text class="desk desk-E-28" fill="#000" text-anchor="middle" font-family="monospace" font-size="18" font-weight="400" x="64" y="30">28</text>


	</g>






	<g class="desk desk-E-29" id="desk-E-29" transform="translate(838, 50) rotate(0)">
		<rect class="desk desk-E-29" fill="#ccc" x="0" y="0" width="90" height="56" />

		<circle class="station-shadow desk-E-29" fill="#fff" visibility="hidden" cx="24" cy="29" r="15" />

		<circle class="desk desk-E-29" fill="#cab5b7" cx="24" cy="29" r="15" />



			<text class="desk desk-E-29" fill="#000" text-anchor="middle" font-family="monospace" font-size="18" font-weight="400" x="24" y="30">29</text>


	</g>


</g>

<g id="larger" style="visibility: hidden;">









			<g class="desk desk-A-1 desk-A-2" id="desk-A-1-2" transform="translate(220, 550) rotate(-90)">
				<rect id="desk-larger-A" class="desk larger desk-A-1 desk-A-2" fill="#ccc" x="-45" y="-28" width="180" height="112" />
				<circle class="ripple desk-A-1" fill="#fff" visibility="hidden" cx="24" cy="29" r="15" />

				  <circle class="ripple desk-A-2" fill="#fff" visibility="hidden" cx="64" cy="29" r="15" />

			</g>






			<g class="desk desk-A-3 desk-A-4" id="desk-A-3-4" transform="translate(220, 445) rotate(-90)">
				<rect id="desk-larger-A" class="desk larger desk-A-3 desk-A-4" fill="#ccc" x="-45" y="-28" width="180" height="112" />
				<circle class="ripple desk-A-3" fill="#fff" visibility="hidden" cx="24" cy="29" r="15" />

				  <circle class="ripple desk-A-4" fill="#fff" visibility="hidden" cx="64" cy="29" r="15" />

			</g>






			<g class="desk desk-A-5 desk-A-6" id="desk-A-5-6" transform="translate(220, 340) rotate(-90)">
				<rect id="desk-larger-A" class="desk larger desk-A-5 desk-A-6" fill="#ccc" x="-45" y="-28" width="180" height="112" />
				<circle class="ripple desk-A-5" fill="#fff" visibility="hidden" cx="24" cy="29" r="15" />

				  <circle class="ripple desk-A-6" fill="#fff" visibility="hidden" cx="64" cy="29" r="15" />

			</g>






			<g class="desk desk-A-7 desk-A-8" id="desk-A-7-8" transform="translate(220, 235) rotate(-90)">
				<rect id="desk-larger-A" class="desk larger desk-A-7 desk-A-8" fill="#ccc" x="-45" y="-28" width="180" height="112" />
				<circle class="ripple desk-A-7" fill="#fff" visibility="hidden" cx="24" cy="29" r="15" />

				  <circle class="ripple desk-A-8" fill="#fff" visibility="hidden" cx="64" cy="29" r="15" />

			</g>









			<g class="desk desk-B-9" id="desk-B-9" transform="translate(313, 600) rotate(0)">
				<rect id="desk-larger-B" class="desk larger desk-B-9" fill="#ccc" x="-45" y="-28" width="180" height="112" />
				<circle class="ripple desk-B-9" fill="#fff" visibility="hidden" cx="24" cy="29" r="15" />

			</g>






			<g class="desk desk-B-10 desk-B-11" id="desk-B-10-11" transform="translate(418, 600) rotate(0)">
				<rect id="desk-larger-B" class="desk larger desk-B-10 desk-B-11" fill="#ccc" x="-45" y="-28" width="180" height="112" />
				<circle class="ripple desk-B-10" fill="#fff" visibility="hidden" cx="24" cy="29" r="15" />

				  <circle class="ripple desk-B-11" fill="#fff" visibility="hidden" cx="64" cy="29" r="15" />

			</g>






			<g class="desk desk-B-12 desk-B-13" id="desk-B-12-13" transform="translate(523, 600) rotate(0)">
				<rect id="desk-larger-B" class="desk larger desk-B-12 desk-B-13" fill="#ccc" x="-45" y="-28" width="180" height="112" />
				<circle class="ripple desk-B-12" fill="#fff" visibility="hidden" cx="24" cy="29" r="15" />

				  <circle class="ripple desk-B-13" fill="#fff" visibility="hidden" cx="64" cy="29" r="15" />

			</g>






			<g class="desk desk-B-14 desk-B-15" id="desk-B-14-15" transform="translate(628, 600) rotate(0)">
				<rect id="desk-larger-B" class="desk larger desk-B-14 desk-B-15" fill="#ccc" x="-45" y="-28" width="180" height="112" />
				<circle class="ripple desk-B-14" fill="#fff" visibility="hidden" cx="24" cy="29" r="15" />

				  <circle class="ripple desk-B-15" fill="#fff" visibility="hidden" cx="64" cy="29" r="15" />

			</g>






			<g class="desk desk-B-16 desk-B-17" id="desk-B-16-17" transform="translate(733, 600) rotate(0)">
				<rect id="desk-larger-B" class="desk larger desk-B-16 desk-B-17" fill="#ccc" x="-45" y="-28" width="180" height="112" />
				<circle class="ripple desk-B-16" fill="#fff" visibility="hidden" cx="24" cy="29" r="15" />

				  <circle class="ripple desk-B-17" fill="#fff" visibility="hidden" cx="64" cy="29" r="15" />

			</g>






			<g class="desk desk-B-18 desk-B-54" id="desk-B-18-54" transform="translate(838, 600) rotate(0)">
				<rect id="desk-larger-B" class="desk larger desk-B-18 desk-B-54" fill="#ccc" x="-45" y="-28" width="180" height="112" />
				<circle class="ripple desk-B-18" fill="#fff" visibility="hidden" cx="24" cy="29" r="15" />

				  <circle class="ripple desk-B-54" fill="#fff" visibility="hidden" cx="64" cy="29" r="15" />

			</g>









			<g class="desk desk-C-34 desk-C-35" id="desk-C-34-35" transform="translate(430, 310) rotate(90)">
				<rect id="desk-larger-C" class="desk larger desk-C-34 desk-C-35" fill="#ccc" x="-45" y="-28" width="180" height="112" />
				<circle class="ripple desk-C-34" fill="#fff" visibility="hidden" cx="24" cy="29" r="15" />

				  <circle class="ripple desk-C-35" fill="#fff" visibility="hidden" cx="64" cy="29" r="15" />

			</g>






			<g class="desk desk-C-38 desk-C-39" id="desk-C-38-39" transform="translate(410, 415) rotate(0)">
				<rect id="desk-larger-C" class="desk larger desk-C-38 desk-C-39" fill="#ccc" x="-45" y="-28" width="180" height="112" />
				<circle class="ripple desk-C-38" fill="#fff" visibility="hidden" cx="24" cy="29" r="15" />

				  <circle class="ripple desk-C-39" fill="#fff" visibility="hidden" cx="64" cy="29" r="15" />

			</g>






			<g class="desk desk-C-40 desk-C-41" id="desk-C-40-41" transform="translate(515, 415) rotate(0)">
				<rect id="desk-larger-C" class="desk larger desk-C-40 desk-C-41" fill="#ccc" x="-45" y="-28" width="180" height="112" />
				<circle class="ripple desk-C-40" fill="#fff" visibility="hidden" cx="24" cy="29" r="15" />

				  <circle class="ripple desk-C-41" fill="#fff" visibility="hidden" cx="64" cy="29" r="15" />

			</g>






			<g class="desk desk-C-37 desk-C-36" id="desk-C-37-36" transform="translate(580, 400) rotate(-90)">
				<rect id="desk-larger-C" class="desk larger desk-C-37 desk-C-36" fill="#ccc" x="-45" y="-28" width="180" height="112" />
				<circle class="ripple desk-C-37" fill="#fff" visibility="hidden" cx="24" cy="29" r="15" />

				  <circle class="ripple desk-C-36" fill="#fff" visibility="hidden" cx="64" cy="29" r="15" />

			</g>






			<g class="desk desk-C-32 desk-C-33" id="desk-C-32-33" transform="translate(515, 240) rotate(0)">
				<rect id="desk-larger-C" class="desk larger desk-C-32 desk-C-33" fill="#ccc" x="-45" y="-28" width="180" height="112" />
				<circle class="ripple desk-C-32" fill="#fff" visibility="hidden" cx="24" cy="29" r="15" />

				  <circle class="ripple desk-C-33" fill="#fff" visibility="hidden" cx="64" cy="29" r="15" />

			</g>






			<g class="desk desk-C-30 desk-C-31" id="desk-C-30-31" transform="translate(410, 240) rotate(0)">
				<rect id="desk-larger-C" class="desk larger desk-C-30 desk-C-31" fill="#ccc" x="-45" y="-28" width="180" height="112" />
				<circle class="ripple desk-C-30" fill="#fff" visibility="hidden" cx="24" cy="29" r="15" />

				  <circle class="ripple desk-C-31" fill="#fff" visibility="hidden" cx="64" cy="29" r="15" />

			</g>






			<g class="desk desk-C-42 desk-C-43" id="desk-C-42-43" transform="translate(770, 310) rotate(90)">
				<rect id="desk-larger-C" class="desk larger desk-C-42 desk-C-43" fill="#ccc" x="-45" y="-28" width="180" height="112" />
				<circle class="ripple desk-C-42" fill="#fff" visibility="hidden" cx="24" cy="29" r="15" />

				  <circle class="ripple desk-C-43" fill="#fff" visibility="hidden" cx="64" cy="29" r="15" />

			</g>









			<g class="desk desk-D-48 desk-D-49" id="desk-D-48-49" transform="translate(750, 415) rotate(0)">
				<rect id="desk-larger-D" class="desk larger desk-D-48 desk-D-49" fill="#ccc" x="-45" y="-28" width="180" height="112" />
				<circle class="ripple desk-D-48" fill="#fff" visibility="hidden" cx="24" cy="29" r="15" />

				  <circle class="ripple desk-D-49" fill="#fff" visibility="hidden" cx="64" cy="29" r="15" />

			</g>






			<g class="desk desk-D-50 desk-D-51" id="desk-D-50-51" transform="translate(855, 415) rotate(0)">
				<rect id="desk-larger-D" class="desk larger desk-D-50 desk-D-51" fill="#ccc" x="-45" y="-28" width="180" height="112" />
				<circle class="ripple desk-D-50" fill="#fff" visibility="hidden" cx="24" cy="29" r="15" />

				  <circle class="ripple desk-D-51" fill="#fff" visibility="hidden" cx="64" cy="29" r="15" />

			</g>






			<g class="desk desk-D-53 desk-D-52" id="desk-D-53-52" transform="translate(920, 400) rotate(-90)">
				<rect id="desk-larger-D" class="desk larger desk-D-53 desk-D-52" fill="#ccc" x="-45" y="-28" width="180" height="112" />
				<circle class="ripple desk-D-53" fill="#fff" visibility="hidden" cx="24" cy="29" r="15" />

				  <circle class="ripple desk-D-52" fill="#fff" visibility="hidden" cx="64" cy="29" r="15" />

			</g>






			<g class="desk desk-D-46 desk-D-47" id="desk-D-46-47" transform="translate(855, 240) rotate(0)">
				<rect id="desk-larger-D" class="desk larger desk-D-46 desk-D-47" fill="#ccc" x="-45" y="-28" width="180" height="112" />
				<circle class="ripple desk-D-46" fill="#fff" visibility="hidden" cx="24" cy="29" r="15" />

				  <circle class="ripple desk-D-47" fill="#fff" visibility="hidden" cx="64" cy="29" r="15" />

			</g>






			<g class="desk desk-D-44 desk-D-45" id="desk-D-44-45" transform="translate(750, 240) rotate(0)">
				<rect id="desk-larger-D" class="desk larger desk-D-44 desk-D-45" fill="#ccc" x="-45" y="-28" width="180" height="112" />
				<circle class="ripple desk-D-44" fill="#fff" visibility="hidden" cx="24" cy="29" r="15" />

				  <circle class="ripple desk-D-45" fill="#fff" visibility="hidden" cx="64" cy="29" r="15" />

			</g>









			<g class="desk desk-E-19 desk-E-20" id="desk-E-19-20" transform="translate(313, 50) rotate(0)">
				<rect id="desk-larger-E" class="desk larger desk-E-19 desk-E-20" fill="#ccc" x="-45" y="-28" width="180" height="112" />
				<circle class="ripple desk-E-19" fill="#fff" visibility="hidden" cx="24" cy="29" r="15" />

				  <circle class="ripple desk-E-20" fill="#fff" visibility="hidden" cx="64" cy="29" r="15" />

			</g>






			<g class="desk desk-E-21 desk-E-22" id="desk-E-21-22" transform="translate(418, 50) rotate(0)">
				<rect id="desk-larger-E" class="desk larger desk-E-21 desk-E-22" fill="#ccc" x="-45" y="-28" width="180" height="112" />
				<circle class="ripple desk-E-21" fill="#fff" visibility="hidden" cx="24" cy="29" r="15" />

				  <circle class="ripple desk-E-22" fill="#fff" visibility="hidden" cx="64" cy="29" r="15" />

			</g>






			<g class="desk desk-E-23 desk-E-24" id="desk-E-23-24" transform="translate(523, 50) rotate(0)">
				<rect id="desk-larger-E" class="desk larger desk-E-23 desk-E-24" fill="#ccc" x="-45" y="-28" width="180" height="112" />
				<circle class="ripple desk-E-23" fill="#fff" visibility="hidden" cx="24" cy="29" r="15" />

				  <circle class="ripple desk-E-24" fill="#fff" visibility="hidden" cx="64" cy="29" r="15" />

			</g>






			<g class="desk desk-E-25 desk-E-26" id="desk-E-25-26" transform="translate(628, 50) rotate(0)">
				<rect id="desk-larger-E" class="desk larger desk-E-25 desk-E-26" fill="#ccc" x="-45" y="-28" width="180" height="112" />
				<circle class="ripple desk-E-25" fill="#fff" visibility="hidden" cx="24" cy="29" r="15" />

				  <circle class="ripple desk-E-26" fill="#fff" visibility="hidden" cx="64" cy="29" r="15" />

			</g>






			<g class="desk desk-E-27 desk-E-28" id="desk-E-27-28" transform="translate(733, 50) rotate(0)">
				<rect id="desk-larger-E" class="desk larger desk-E-27 desk-E-28" fill="#ccc" x="-45" y="-28" width="180" height="112" />
				<circle class="ripple desk-E-27" fill="#fff" visibility="hidden" cx="24" cy="29" r="15" />

				  <circle class="ripple desk-E-28" fill="#fff" visibility="hidden" cx="64" cy="29" r="15" />

			</g>






			<g class="desk desk-E-29" id="desk-E-29" transform="translate(838, 50) rotate(0)">
				<rect id="desk-larger-E" class="desk larger desk-E-29" fill="#ccc" x="-45" y="-28" width="180" height="112" />
				<circle class="ripple desk-E-29" fill="#fff" visibility="hidden" cx="24" cy="29" r="15" />

			</g>


</g>
</g>
</svg>
